<?xml version="1.0" encoding="utf-8"?>
<!-- Generator: Adobe Illustrator 21.0.2, SVG Export Plug-In . SVG Version: 6.00 Build 0)  -->
<svg version="1.1" id="Layer_1" xmlns="http://www.w3.org/2000/svg" xmlns:xlink="http://www.w3.org/1999/xlink" x="0px" y="0px"
	 viewBox="0 0 76.63544 76.63544" style="enable-background:new 0 0 76.63544 76.63544;" xml:space="preserve">
<style type="text/css">
	.st0{fill:#E2E2E2;}
	.st1{fill:#3db5e6;}
	.st2{fill:#d8292f;}
</style>
<circle class="st0" cx="38.31772" cy="38.31772" r="38.31772"/>
<path class="st1" d="M67.04857,45.68877C63.9009,58.33473,52.38416,67.3318,38.82001,67.3318
	c-13.62556,0-25.04317-9.52961-28.06185-22.22776c3.6298,0,7.02314,0.01659,8.59851,0.01659
	c0.74315,0,0.88747,0.01289,0.93047,0.00982c1.18536-0.05835,2.67168-0.44958,3.6605-2.8541l3.76799-9.85664l8.36819,20.14798
	C36.83621,54.17376,38.09221,54.06,38.8415,54.06h0.07064c1.46175,0,2.09743-0.51223,2.65326-1.57169l9.45221-19.91752
	l3.22444,8.97639l0.19654,0.43462c0.68173,1.49552,1.17215,2.97272,2.8593,3.16576c0.34779,0.03979,4.3866-0.03077,9.8313-0.03077
	C67.12918,45.11679,67.12922,45.15171,67.04857,45.68877z"/>
<path class="st2" d="M67.94367,38.24069c0,0.15047,0,0.52893-0.00307,0.52893h-0.00615h-8.69051l-5.07018-14.16318
	c-0.45141-1.05331-1.13009-2.63237-3.10775-2.63237c-1.20993,0-2.30317,0.99926-2.9235,2.64832l-9.19118,21.2896L30.1041,24.75153
	c-0.866-1.87939-1.46481-2.76327-3.19679-2.76327c-1.17616,0-2.03908,0.43325-2.97877,2.65965l-5.25122,14.332l-8.72443-0.00913
	c-0.00615-0.21804-0.0092-0.43603-0.0092-0.65407c0-15.93181,12.91619-28.80768,28.84799-28.80768
	S67.94367,22.30889,67.94367,38.24069z"/>
</svg>
